<mxfile host="Electron" modified="2024-01-13T13:24:03.676Z" agent="Mozilla/5.0 (Macintosh; Intel Mac OS X 10_15_7) AppleWebKit/537.36 (KHTML, like Gecko) draw.io/22.1.18 Chrome/120.0.6099.199 Electron/28.1.2 Safari/537.36" etag="Xc_tVkwMhXbQefqPba5_" version="22.1.18" type="device">
  <diagram name="Page-1" id="2YBvvXClWsGukQMizWep">
    <mxGraphModel dx="2284" dy="854" grid="1" gridSize="10" guides="1" tooltips="1" connect="1" arrows="1" fold="1" page="1" pageScale="1" pageWidth="850" pageHeight="1100" math="0" shadow="0">
      <root>
        <mxCell id="0" />
        <mxCell id="1" parent="0" />
        <mxCell id="fIsnjEa9jVtpSU1gRb7B-2" value=": MarsRoverApplication" style="shape=umlLifeline;perimeter=lifelinePerimeter;whiteSpace=wrap;html=1;container=1;dropTarget=0;collapsible=0;recursiveResize=0;outlineConnect=0;portConstraint=eastwest;newEdgeStyle={&quot;curved&quot;:0,&quot;rounded&quot;:0};" vertex="1" parent="1">
          <mxGeometry x="30" y="20" width="130" height="1010" as="geometry" />
        </mxCell>
        <mxCell id="fIsnjEa9jVtpSU1gRb7B-3" value="" style="html=1;points=[[0,0,0,0,5],[0,1,0,0,-5],[1,0,0,0,5],[1,1,0,0,-5]];perimeter=orthogonalPerimeter;outlineConnect=0;targetShapes=umlLifeline;portConstraint=eastwest;newEdgeStyle={&quot;curved&quot;:0,&quot;rounded&quot;:0};" vertex="1" parent="fIsnjEa9jVtpSU1gRb7B-2">
          <mxGeometry x="60" y="80" width="10" height="930" as="geometry" />
        </mxCell>
        <mxCell id="fIsnjEa9jVtpSU1gRb7B-4" value=": InputReader" style="shape=umlLifeline;perimeter=lifelinePerimeter;whiteSpace=wrap;html=1;container=1;dropTarget=0;collapsible=0;recursiveResize=0;outlineConnect=0;portConstraint=eastwest;newEdgeStyle={&quot;curved&quot;:0,&quot;rounded&quot;:0};" vertex="1" parent="1">
          <mxGeometry x="370" y="20" width="130" height="960" as="geometry" />
        </mxCell>
        <mxCell id="fIsnjEa9jVtpSU1gRb7B-5" value="" style="html=1;points=[[0,0,0,0,5],[0,1,0,0,-5],[1,0,0,0,5],[1,1,0,0,-5]];perimeter=orthogonalPerimeter;outlineConnect=0;targetShapes=umlLifeline;portConstraint=eastwest;newEdgeStyle={&quot;curved&quot;:0,&quot;rounded&quot;:0};" vertex="1" parent="fIsnjEa9jVtpSU1gRb7B-4">
          <mxGeometry x="60" y="160" width="10" height="790" as="geometry" />
        </mxCell>
        <mxCell id="fIsnjEa9jVtpSU1gRb7B-6" value="main" style="html=1;verticalAlign=bottom;endArrow=block;curved=0;rounded=0;" edge="1" parent="1" target="fIsnjEa9jVtpSU1gRb7B-5">
          <mxGeometry x="-0.1515" width="80" relative="1" as="geometry">
            <mxPoint x="100" y="204.5" as="sourcePoint" />
            <mxPoint x="440" y="204.5" as="targetPoint" />
            <Array as="points">
              <mxPoint x="170" y="204.5" />
            </Array>
            <mxPoint as="offset" />
          </mxGeometry>
        </mxCell>
        <mxCell id="fIsnjEa9jVtpSU1gRb7B-7" value=": InMemory&lt;br&gt;SimulationRepository" style="shape=umlLifeline;perimeter=lifelinePerimeter;whiteSpace=wrap;html=1;container=1;dropTarget=0;collapsible=0;recursiveResize=0;outlineConnect=0;portConstraint=eastwest;newEdgeStyle={&quot;curved&quot;:0,&quot;rounded&quot;:0};" vertex="1" parent="1">
          <mxGeometry x="200" y="20" width="130" height="1090" as="geometry" />
        </mxCell>
        <mxCell id="fIsnjEa9jVtpSU1gRb7B-8" value="" style="html=1;points=[[0,0,0,0,5],[0,1,0,0,-5],[1,0,0,0,5],[1,1,0,0,-5]];perimeter=orthogonalPerimeter;outlineConnect=0;targetShapes=umlLifeline;portConstraint=eastwest;newEdgeStyle={&quot;curved&quot;:0,&quot;rounded&quot;:0};" vertex="1" parent="fIsnjEa9jVtpSU1gRb7B-7">
          <mxGeometry x="60" y="80" width="10" height="890" as="geometry" />
        </mxCell>
        <mxCell id="fIsnjEa9jVtpSU1gRb7B-9" value="Entry" style="html=1;verticalAlign=bottom;startArrow=oval;startFill=1;endArrow=block;startSize=8;curved=0;rounded=0;" edge="1" parent="1">
          <mxGeometry width="60" relative="1" as="geometry">
            <mxPoint x="-70" y="120" as="sourcePoint" />
            <mxPoint x="90" y="120" as="targetPoint" />
          </mxGeometry>
        </mxCell>
        <mxCell id="fIsnjEa9jVtpSU1gRb7B-10" value="create" style="html=1;verticalAlign=bottom;endArrow=block;curved=0;rounded=0;" edge="1" parent="1" target="fIsnjEa9jVtpSU1gRb7B-8">
          <mxGeometry width="80" relative="1" as="geometry">
            <mxPoint x="100" y="130" as="sourcePoint" />
            <mxPoint x="180" y="130" as="targetPoint" />
            <mxPoint as="offset" />
          </mxGeometry>
        </mxCell>
        <mxCell id="fIsnjEa9jVtpSU1gRb7B-11" value="return instance" style="html=1;verticalAlign=bottom;endArrow=none;curved=0;rounded=0;startArrow=classic;startFill=1;endFill=0;" edge="1" parent="1" target="fIsnjEa9jVtpSU1gRb7B-8">
          <mxGeometry width="80" relative="1" as="geometry">
            <mxPoint x="100" y="160" as="sourcePoint" />
            <mxPoint x="240" y="160" as="targetPoint" />
            <mxPoint as="offset" />
          </mxGeometry>
        </mxCell>
        <mxCell id="fIsnjEa9jVtpSU1gRb7B-12" value=": InputParser" style="shape=umlLifeline;perimeter=lifelinePerimeter;whiteSpace=wrap;html=1;container=1;dropTarget=0;collapsible=0;recursiveResize=0;outlineConnect=0;portConstraint=eastwest;newEdgeStyle={&quot;curved&quot;:0,&quot;rounded&quot;:0};" vertex="1" parent="1">
          <mxGeometry x="540" y="20" width="130" height="960" as="geometry" />
        </mxCell>
        <mxCell id="fIsnjEa9jVtpSU1gRb7B-13" value="" style="html=1;points=[[0,0,0,0,5],[0,1,0,0,-5],[1,0,0,0,5],[1,1,0,0,-5]];perimeter=orthogonalPerimeter;outlineConnect=0;targetShapes=umlLifeline;portConstraint=eastwest;newEdgeStyle={&quot;curved&quot;:0,&quot;rounded&quot;:0};" vertex="1" parent="fIsnjEa9jVtpSU1gRb7B-12">
          <mxGeometry x="60" y="170" width="10" height="770" as="geometry" />
        </mxCell>
        <mxCell id="fIsnjEa9jVtpSU1gRb7B-14" value="parseInput" style="html=1;verticalAlign=bottom;endArrow=block;curved=0;rounded=0;" edge="1" parent="1" target="fIsnjEa9jVtpSU1gRb7B-12">
          <mxGeometry width="80" relative="1" as="geometry">
            <mxPoint x="440" y="220" as="sourcePoint" />
            <mxPoint x="580" y="220" as="targetPoint" />
          </mxGeometry>
        </mxCell>
        <mxCell id="fIsnjEa9jVtpSU1gRb7B-15" value=": CommandController" style="shape=umlLifeline;perimeter=lifelinePerimeter;whiteSpace=wrap;html=1;container=1;dropTarget=0;collapsible=0;recursiveResize=0;outlineConnect=0;portConstraint=eastwest;newEdgeStyle={&quot;curved&quot;:0,&quot;rounded&quot;:0};" vertex="1" parent="1">
          <mxGeometry x="710" y="20" width="130" height="1070" as="geometry" />
        </mxCell>
        <mxCell id="fIsnjEa9jVtpSU1gRb7B-16" value="" style="html=1;points=[[0,0,0,0,5],[0,1,0,0,-5],[1,0,0,0,5],[1,1,0,0,-5]];perimeter=orthogonalPerimeter;outlineConnect=0;targetShapes=umlLifeline;portConstraint=eastwest;newEdgeStyle={&quot;curved&quot;:0,&quot;rounded&quot;:0};" vertex="1" parent="fIsnjEa9jVtpSU1gRb7B-15">
          <mxGeometry x="60" y="190" width="10" height="740" as="geometry" />
        </mxCell>
        <mxCell id="fIsnjEa9jVtpSU1gRb7B-17" value="determineCommand" style="html=1;verticalAlign=bottom;endArrow=block;curved=0;rounded=0;" edge="1" parent="1" target="fIsnjEa9jVtpSU1gRb7B-15">
          <mxGeometry x="-0.003" width="80" relative="1" as="geometry">
            <mxPoint x="610" y="234.5" as="sourcePoint" />
            <mxPoint x="690" y="234.5" as="targetPoint" />
            <mxPoint as="offset" />
          </mxGeometry>
        </mxCell>
        <mxCell id="fIsnjEa9jVtpSU1gRb7B-18" value=": CommandHandler&lt;br&gt;Factory" style="shape=umlLifeline;perimeter=lifelinePerimeter;whiteSpace=wrap;html=1;container=1;dropTarget=0;collapsible=0;recursiveResize=0;outlineConnect=0;portConstraint=eastwest;newEdgeStyle={&quot;curved&quot;:0,&quot;rounded&quot;:0};" vertex="1" parent="1">
          <mxGeometry x="880" y="20" width="130" height="430" as="geometry" />
        </mxCell>
        <mxCell id="fIsnjEa9jVtpSU1gRb7B-19" value="" style="html=1;points=[[0,0,0,0,5],[0,1,0,0,-5],[1,0,0,0,5],[1,1,0,0,-5]];perimeter=orthogonalPerimeter;outlineConnect=0;targetShapes=umlLifeline;portConstraint=eastwest;newEdgeStyle={&quot;curved&quot;:0,&quot;rounded&quot;:0};" vertex="1" parent="fIsnjEa9jVtpSU1gRb7B-18">
          <mxGeometry x="60" y="210" width="10" height="100" as="geometry" />
        </mxCell>
        <mxCell id="fIsnjEa9jVtpSU1gRb7B-20" value="create Handler" style="html=1;verticalAlign=bottom;endArrow=block;curved=0;rounded=0;" edge="1" parent="1" target="fIsnjEa9jVtpSU1gRb7B-18">
          <mxGeometry width="80" relative="1" as="geometry">
            <mxPoint x="780" y="260" as="sourcePoint" />
            <mxPoint x="860" y="260" as="targetPoint" />
          </mxGeometry>
        </mxCell>
        <mxCell id="fIsnjEa9jVtpSU1gRb7B-24" value="return CommandHandler" style="html=1;verticalAlign=bottom;endArrow=block;curved=0;rounded=0;" edge="1" parent="1" target="fIsnjEa9jVtpSU1gRb7B-18">
          <mxGeometry width="80" relative="1" as="geometry">
            <mxPoint x="780" y="300" as="sourcePoint" />
            <mxPoint x="860" y="300" as="targetPoint" />
          </mxGeometry>
        </mxCell>
        <mxCell id="fIsnjEa9jVtpSU1gRb7B-25" value=": SimCreationHandler" style="shape=umlLifeline;perimeter=lifelinePerimeter;whiteSpace=wrap;html=1;container=1;dropTarget=0;collapsible=0;recursiveResize=0;outlineConnect=0;portConstraint=eastwest;newEdgeStyle={&quot;curved&quot;:0,&quot;rounded&quot;:0};" vertex="1" parent="1">
          <mxGeometry x="1050" y="20" width="130" height="470" as="geometry" />
        </mxCell>
        <mxCell id="fIsnjEa9jVtpSU1gRb7B-26" value="" style="html=1;points=[[0,0,0,0,5],[0,1,0,0,-5],[1,0,0,0,5],[1,1,0,0,-5]];perimeter=orthogonalPerimeter;outlineConnect=0;targetShapes=umlLifeline;portConstraint=eastwest;newEdgeStyle={&quot;curved&quot;:0,&quot;rounded&quot;:0};" vertex="1" parent="fIsnjEa9jVtpSU1gRb7B-25">
          <mxGeometry x="60" y="340" width="10" height="120" as="geometry" />
        </mxCell>
        <mxCell id="fIsnjEa9jVtpSU1gRb7B-27" value="handleCommand(createSimulationCommand)" style="html=1;verticalAlign=bottom;endArrow=block;curved=0;rounded=0;" edge="1" parent="1" target="fIsnjEa9jVtpSU1gRb7B-25">
          <mxGeometry x="-0.0015" width="80" relative="1" as="geometry">
            <mxPoint x="780" y="390" as="sourcePoint" />
            <mxPoint x="860" y="390" as="targetPoint" />
            <mxPoint as="offset" />
          </mxGeometry>
        </mxCell>
        <mxCell id="fIsnjEa9jVtpSU1gRb7B-28" value="addSimulation" style="html=1;verticalAlign=bottom;endArrow=none;curved=0;rounded=0;startArrow=classic;startFill=1;endFill=0;" edge="1" parent="1" source="fIsnjEa9jVtpSU1gRb7B-7">
          <mxGeometry width="80" relative="1" as="geometry">
            <mxPoint x="1030" y="420" as="sourcePoint" />
            <mxPoint x="1110" y="420" as="targetPoint" />
          </mxGeometry>
        </mxCell>
        <mxCell id="fIsnjEa9jVtpSU1gRb7B-29" value="Present simulationCreated" style="html=1;verticalAlign=bottom;endArrow=block;curved=0;rounded=0;" edge="1" parent="1" target="fIsnjEa9jVtpSU1gRb7B-30">
          <mxGeometry width="80" relative="1" as="geometry">
            <mxPoint x="1120" y="440" as="sourcePoint" />
            <mxPoint x="1200" y="440" as="targetPoint" />
          </mxGeometry>
        </mxCell>
        <mxCell id="fIsnjEa9jVtpSU1gRb7B-30" value=": SimCreationPresenter" style="shape=umlLifeline;perimeter=lifelinePerimeter;whiteSpace=wrap;html=1;container=1;dropTarget=0;collapsible=0;recursiveResize=0;outlineConnect=0;portConstraint=eastwest;newEdgeStyle={&quot;curved&quot;:0,&quot;rounded&quot;:0};" vertex="1" parent="1">
          <mxGeometry x="1220" y="20" width="130" height="470" as="geometry" />
        </mxCell>
        <mxCell id="fIsnjEa9jVtpSU1gRb7B-31" value="" style="html=1;points=[[0,0,0,0,5],[0,1,0,0,-5],[1,0,0,0,5],[1,1,0,0,-5]];perimeter=orthogonalPerimeter;outlineConnect=0;targetShapes=umlLifeline;portConstraint=eastwest;newEdgeStyle={&quot;curved&quot;:0,&quot;rounded&quot;:0};" vertex="1" parent="fIsnjEa9jVtpSU1gRb7B-30">
          <mxGeometry x="60" y="380" width="10" height="80" as="geometry" />
        </mxCell>
        <mxCell id="fIsnjEa9jVtpSU1gRb7B-32" value=": RoverLandingHandler" style="shape=umlLifeline;perimeter=lifelinePerimeter;whiteSpace=wrap;html=1;container=1;dropTarget=0;collapsible=0;recursiveResize=0;outlineConnect=0;portConstraint=eastwest;newEdgeStyle={&quot;curved&quot;:0,&quot;rounded&quot;:0};" vertex="1" parent="1">
          <mxGeometry x="1050" y="510" width="130" height="240" as="geometry" />
        </mxCell>
        <mxCell id="fIsnjEa9jVtpSU1gRb7B-33" value="" style="html=1;points=[[0,0,0,0,5],[0,1,0,0,-5],[1,0,0,0,5],[1,1,0,0,-5]];perimeter=orthogonalPerimeter;outlineConnect=0;targetShapes=umlLifeline;portConstraint=eastwest;newEdgeStyle={&quot;curved&quot;:0,&quot;rounded&quot;:0};" vertex="1" parent="fIsnjEa9jVtpSU1gRb7B-32">
          <mxGeometry x="60" y="90" width="10" height="120" as="geometry" />
        </mxCell>
        <mxCell id="fIsnjEa9jVtpSU1gRb7B-34" value=": RoverLanding&lt;br&gt;Presenter" style="shape=umlLifeline;perimeter=lifelinePerimeter;whiteSpace=wrap;html=1;container=1;dropTarget=0;collapsible=0;recursiveResize=0;outlineConnect=0;portConstraint=eastwest;newEdgeStyle={&quot;curved&quot;:0,&quot;rounded&quot;:0};" vertex="1" parent="1">
          <mxGeometry x="1220" y="510" width="130" height="240" as="geometry" />
        </mxCell>
        <mxCell id="fIsnjEa9jVtpSU1gRb7B-35" value="" style="html=1;points=[[0,0,0,0,5],[0,1,0,0,-5],[1,0,0,0,5],[1,1,0,0,-5]];perimeter=orthogonalPerimeter;outlineConnect=0;targetShapes=umlLifeline;portConstraint=eastwest;newEdgeStyle={&quot;curved&quot;:0,&quot;rounded&quot;:0};" vertex="1" parent="fIsnjEa9jVtpSU1gRb7B-34">
          <mxGeometry x="60" y="100" width="10" height="80" as="geometry" />
        </mxCell>
        <mxCell id="fIsnjEa9jVtpSU1gRb7B-36" value="handleCommand(createRoverLandingCommand)" style="html=1;verticalAlign=bottom;endArrow=block;curved=0;rounded=0;" edge="1" parent="1">
          <mxGeometry x="-0.003" width="80" relative="1" as="geometry">
            <mxPoint x="777.5" y="620" as="sourcePoint" />
            <mxPoint x="1112.5" y="620" as="targetPoint" />
            <mxPoint as="offset" />
          </mxGeometry>
        </mxCell>
        <mxCell id="fIsnjEa9jVtpSU1gRb7B-37" value="Present roverLanded" style="html=1;verticalAlign=bottom;endArrow=block;curved=0;rounded=0;" edge="1" parent="1">
          <mxGeometry width="80" relative="1" as="geometry">
            <mxPoint x="1120" y="680" as="sourcePoint" />
            <mxPoint x="1285" y="680" as="targetPoint" />
          </mxGeometry>
        </mxCell>
        <mxCell id="fIsnjEa9jVtpSU1gRb7B-38" value="setRoverState" style="html=1;verticalAlign=bottom;endArrow=none;curved=0;rounded=0;startArrow=classic;startFill=1;endFill=0;" edge="1" parent="1">
          <mxGeometry width="80" relative="1" as="geometry">
            <mxPoint x="270" y="650" as="sourcePoint" />
            <mxPoint x="1115" y="650" as="targetPoint" />
          </mxGeometry>
        </mxCell>
        <mxCell id="fIsnjEa9jVtpSU1gRb7B-42" value=": RoverDrivingHandler" style="shape=umlLifeline;perimeter=lifelinePerimeter;whiteSpace=wrap;html=1;container=1;dropTarget=0;collapsible=0;recursiveResize=0;outlineConnect=0;portConstraint=eastwest;newEdgeStyle={&quot;curved&quot;:0,&quot;rounded&quot;:0};" vertex="1" parent="1">
          <mxGeometry x="1050" y="770" width="130" height="240" as="geometry" />
        </mxCell>
        <mxCell id="fIsnjEa9jVtpSU1gRb7B-43" value="" style="html=1;points=[[0,0,0,0,5],[0,1,0,0,-5],[1,0,0,0,5],[1,1,0,0,-5]];perimeter=orthogonalPerimeter;outlineConnect=0;targetShapes=umlLifeline;portConstraint=eastwest;newEdgeStyle={&quot;curved&quot;:0,&quot;rounded&quot;:0};" vertex="1" parent="fIsnjEa9jVtpSU1gRb7B-42">
          <mxGeometry x="60" y="90" width="10" height="120" as="geometry" />
        </mxCell>
        <mxCell id="fIsnjEa9jVtpSU1gRb7B-44" value=": RoverDriving&lt;br&gt;Presenter" style="shape=umlLifeline;perimeter=lifelinePerimeter;whiteSpace=wrap;html=1;container=1;dropTarget=0;collapsible=0;recursiveResize=0;outlineConnect=0;portConstraint=eastwest;newEdgeStyle={&quot;curved&quot;:0,&quot;rounded&quot;:0};" vertex="1" parent="1">
          <mxGeometry x="1220" y="770" width="130" height="240" as="geometry" />
        </mxCell>
        <mxCell id="fIsnjEa9jVtpSU1gRb7B-45" value="" style="html=1;points=[[0,0,0,0,5],[0,1,0,0,-5],[1,0,0,0,5],[1,1,0,0,-5]];perimeter=orthogonalPerimeter;outlineConnect=0;targetShapes=umlLifeline;portConstraint=eastwest;newEdgeStyle={&quot;curved&quot;:0,&quot;rounded&quot;:0};" vertex="1" parent="fIsnjEa9jVtpSU1gRb7B-44">
          <mxGeometry x="60" y="100" width="10" height="80" as="geometry" />
        </mxCell>
        <mxCell id="fIsnjEa9jVtpSU1gRb7B-46" value="Present roverDriving" style="html=1;verticalAlign=bottom;endArrow=block;curved=0;rounded=0;" edge="1" parent="1">
          <mxGeometry width="80" relative="1" as="geometry">
            <mxPoint x="1120" y="940" as="sourcePoint" />
            <mxPoint x="1285" y="940" as="targetPoint" />
          </mxGeometry>
        </mxCell>
        <mxCell id="fIsnjEa9jVtpSU1gRb7B-47" value="handleCommand(createRoverDrivingCommand)" style="html=1;verticalAlign=bottom;endArrow=block;curved=0;rounded=0;" edge="1" parent="1">
          <mxGeometry x="-0.003" width="80" relative="1" as="geometry">
            <mxPoint x="777.5" y="880" as="sourcePoint" />
            <mxPoint x="1112.5" y="880" as="targetPoint" />
            <mxPoint as="offset" />
          </mxGeometry>
        </mxCell>
        <mxCell id="fIsnjEa9jVtpSU1gRb7B-48" value="changeRoverState" style="html=1;verticalAlign=bottom;endArrow=none;curved=0;rounded=0;startArrow=classic;startFill=1;endFill=0;" edge="1" parent="1">
          <mxGeometry width="80" relative="1" as="geometry">
            <mxPoint x="270" y="910" as="sourcePoint" />
            <mxPoint x="1115" y="910" as="targetPoint" />
          </mxGeometry>
        </mxCell>
        <mxCell id="fIsnjEa9jVtpSU1gRb7B-49" value="" style="rounded=0;whiteSpace=wrap;html=1;fillColor=none;" vertex="1" parent="1">
          <mxGeometry x="210" y="350" width="1100" height="140" as="geometry" />
        </mxCell>
        <mxCell id="fIsnjEa9jVtpSU1gRb7B-50" value="" style="rounded=0;whiteSpace=wrap;html=1;fillColor=none;" vertex="1" parent="1">
          <mxGeometry x="210" y="590" width="1100" height="140" as="geometry" />
        </mxCell>
        <mxCell id="fIsnjEa9jVtpSU1gRb7B-51" value="" style="rounded=0;whiteSpace=wrap;html=1;fillColor=none;" vertex="1" parent="1">
          <mxGeometry x="220" y="850" width="1100" height="140" as="geometry" />
        </mxCell>
      </root>
    </mxGraphModel>
  </diagram>
</mxfile>
